<svg width="200" height="78" fill="none" xmlns="http://www.w3.org/2000/svg"><path d="M7.584 73.992v2.484h-1.08V75H1.188v1.476H.096v-2.484h.336c.408-.024.688-.312.84-.864.152-.552.256-1.332.312-2.34l.096-2.148h4.932v5.352h.972zm-4.944-3.12c-.032.8-.1 1.464-.204 1.992-.096.52-.276.896-.54 1.128H5.46v-4.344H2.7l-.06 1.224zm9.769 4.2c-.632 0-1.2-.14-1.704-.42-.504-.28-.9-.664-1.188-1.152a3.357 3.357 0 01-.42-1.68c0-.624.14-1.18.42-1.668.288-.496.684-.88 1.188-1.152a3.449 3.449 0 011.704-.42c.632 0 1.196.14 1.692.42.504.272.896.656 1.176 1.152.288.488.432 1.044.432 1.668 0 .624-.144 1.184-.432 1.68-.28.488-.672.872-1.176 1.152-.496.28-1.06.42-1.692.42zm0-1.008a2.15 2.15 0 001.092-.276 2.03 2.03 0 00.768-.792c.184-.344.276-.736.276-1.176 0-.44-.092-.828-.276-1.164a1.93 1.93 0 00-.768-.792 2.15 2.15 0 00-1.092-.276c-.408 0-.776.092-1.104.276-.32.184-.576.448-.768.792a2.385 2.385 0 00-.276 1.164c0 .44.092.832.276 1.176.192.336.448.6.768.792.328.184.696.276 1.104.276zm8.803-5.208c.592 0 1.12.132 1.584.396.464.264.824.632 1.08 1.104.264.464.396.996.396 1.596 0 .616-.14 1.164-.42 1.644a2.82 2.82 0 01-1.164 1.104c-.496.264-1.064.396-1.704.396-1.08 0-1.916-.368-2.508-1.104-.584-.744-.876-1.788-.876-3.132 0-1.304.268-2.324.804-3.06.536-.744 1.356-1.236 2.46-1.476l2.904-.648.168 1.056-2.676.576c-.832.184-1.452.496-1.86.936-.408.44-.64 1.072-.696 1.896a2.799 2.799 0 011.056-.948 3.107 3.107 0 011.452-.336zm-.204 5.28c.408 0 .768-.092 1.08-.276a1.93 1.93 0 00.744-.756c.176-.328.264-.7.264-1.116 0-.632-.192-1.14-.576-1.524-.384-.384-.888-.576-1.512-.576s-1.132.192-1.524.576c-.384.384-.576.892-.576 1.524 0 .416.088.788.264 1.116.184.32.436.572.756.756.32.184.68.276 1.08.276zm8.378-3.336c.8.008 1.412.192 1.836.552.424.36.636.868.636 1.524 0 .688-.232 1.22-.696 1.596-.456.368-1.112.548-1.968.54L26.518 75v-6.36h1.152v2.148l1.716.012zm3.42-2.16h1.152V75h-1.152v-6.36zm-3.696 5.496c.52.008.912-.096 1.176-.312.272-.216.408-.536.408-.96 0-.416-.132-.72-.396-.912-.264-.192-.66-.292-1.188-.3l-1.44-.024v2.496l1.44.012zm12.763-5.496V75h-1.152v-2.568c-.688.32-1.372.48-2.052.48-.792 0-1.404-.184-1.836-.552-.432-.368-.648-.92-.648-1.656V68.64h1.152v1.992c0 .44.136.772.408.996.28.224.668.336 1.164.336.56 0 1.164-.14 1.812-.42V68.64h1.152zm5.105-.06c.88 0 1.552.216 2.016.648.472.432.708 1.076.708 1.932V75H48.61v-.84a1.853 1.853 0 01-.828.684c-.352.152-.772.228-1.26.228-.712 0-1.284-.172-1.716-.516-.424-.344-.636-.796-.636-1.356s.204-1.008.612-1.344c.408-.344 1.056-.516 1.944-.516h1.824v-.228c0-.496-.144-.876-.432-1.14-.288-.264-.712-.396-1.272-.396-.376 0-.744.064-1.104.192a2.76 2.76 0 00-.912.492l-.48-.864c.328-.264.72-.464 1.176-.6.456-.144.94-.216 1.452-.216zm-.264 5.604c.44 0 .82-.096 1.14-.288.32-.2.552-.48.696-.84v-.888h-1.776c-.976 0-1.464.328-1.464.984 0 .32.124.572.372.756.248.184.592.276 1.032.276zm12.257.888c-.648 0-1.228-.14-1.74-.42-.504-.28-.9-.664-1.188-1.152a3.284 3.284 0 01-.432-1.68c0-.624.144-1.18.432-1.668.288-.496.684-.88 1.188-1.152.512-.28 1.092-.42 1.74-.42.576 0 1.088.116 1.536.348a2.47 2.47 0 011.056 1.008l-.876.564a1.957 1.957 0 00-.744-.684 2.122 2.122 0 00-.984-.228 2.31 2.31 0 00-1.128.276 2.008 2.008 0 00-.78.792 2.385 2.385 0 00-.276 1.164c0 .448.092.844.276 1.188.192.336.452.596.78.78a2.31 2.31 0 001.128.276c.36 0 .688-.076.984-.228.296-.152.544-.38.744-.684l.876.552c-.248.44-.6.78-1.056 1.02-.448.232-.96.348-1.536.348zm9.341-5.424h-2.328V75h-1.152v-5.352h-2.328V68.64h5.808v1.008zm5.15-1.068c.616 0 1.168.136 1.656.408.488.272.868.652 1.14 1.14.28.488.42 1.052.42 1.692 0 .64-.14 1.208-.42 1.704a2.894 2.894 0 01-1.14 1.14 3.343 3.343 0 01-1.656.408c-.456 0-.876-.088-1.26-.264a2.621 2.621 0 01-.96-.768v3.288H70.09V68.64h1.104v1.008c.256-.352.58-.616.972-.792a3.012 3.012 0 011.296-.276zm-.096 5.484a2.15 2.15 0 001.092-.276 2.03 2.03 0 00.768-.792c.192-.344.288-.736.288-1.176 0-.44-.096-.828-.288-1.164a1.93 1.93 0 00-.768-.792 2.15 2.15 0 00-1.092-.276c-.4 0-.764.096-1.092.288-.32.184-.576.444-.768.78a2.385 2.385 0 00-.276 1.164c0 .44.092.832.276 1.176.184.336.44.6.768.792.328.184.692.276 1.092.276zm8.31 1.008c-.632 0-1.2-.14-1.704-.42-.504-.28-.9-.664-1.188-1.152a3.357 3.357 0 01-.42-1.68c0-.624.14-1.18.42-1.668.288-.496.684-.88 1.188-1.152a3.449 3.449 0 011.704-.42c.632 0 1.196.14 1.692.42.504.272.896.656 1.176 1.152.288.488.432 1.044.432 1.668 0 .624-.144 1.184-.432 1.68-.28.488-.672.872-1.176 1.152-.496.28-1.06.42-1.692.42zm0-1.008a2.15 2.15 0 001.092-.276 2.03 2.03 0 00.768-.792c.184-.344.276-.736.276-1.176 0-.44-.092-.828-.276-1.164a1.93 1.93 0 00-.768-.792 2.15 2.15 0 00-1.092-.276c-.408 0-.776.092-1.104.276-.32.184-.576.448-.768.792a2.385 2.385 0 00-.276 1.164c0 .44.092.832.276 1.176.192.336.448.6.768.792.328.184.696.276 1.104.276zm5.563-5.424h1.152v4.632l3.9-4.632h1.044V75h-1.152v-4.632L88.295 75H87.24v-6.36zm13.672 1.008h-2.328V75h-1.151v-5.352h-2.329V68.64h5.808v1.008zm7.245 2.208c0 .088-.008.204-.024.348h-5.16c.072.56.316 1.012.732 1.356.424.336.948.504 1.572.504.76 0 1.372-.256 1.836-.768l.636.744a2.777 2.777 0 01-1.08.768c-.424.176-.9.264-1.428.264-.672 0-1.268-.136-1.788-.408a3.033 3.033 0 01-1.212-1.164 3.357 3.357 0 01-.42-1.68c0-.616.136-1.172.408-1.668.28-.496.66-.88 1.14-1.152a3.244 3.244 0 011.644-.42c.608 0 1.148.14 1.62.42.48.272.852.656 1.116 1.152.272.496.408 1.064.408 1.704zm-3.144-2.304c-.552 0-1.016.168-1.392.504-.368.336-.584.776-.648 1.32h4.08c-.064-.536-.284-.972-.66-1.308-.368-.344-.828-.516-1.38-.516zm10.886-.912V75h-1.152v-5.352h-2.736l-.072 1.416c-.04.856-.116 1.572-.228 2.148-.112.568-.296 1.024-.552 1.368-.256.344-.612.516-1.068.516-.208 0-.444-.036-.708-.108l.072-.972c.104.024.2.036.288.036.32 0 .56-.14.72-.42.16-.28.264-.612.312-.996.048-.384.092-.932.132-1.644l.108-2.352h4.884zm5.767 2.16c.808.008 1.424.192 1.848.552.424.36.636.868.636 1.524 0 .688-.232 1.22-.696 1.596-.456.368-1.112.548-1.968.54l-2.76-.012v-6.36h1.152v2.148l1.788.012zm-.276 3.336c.52.008.912-.096 1.176-.312.272-.216.408-.536.408-.96 0-.416-.132-.72-.396-.912-.256-.192-.652-.292-1.188-.3l-1.512-.024v2.496l1.512.012zm4.839-5.496h1.152v2.7h3.624v-2.7h1.152V75h-1.152v-2.664h-3.624V75h-1.152v-6.36zm11.492 6.432c-.632 0-1.2-.14-1.704-.42-.504-.28-.9-.664-1.188-1.152a3.357 3.357 0 01-.42-1.68c0-.624.14-1.18.42-1.668.288-.496.684-.88 1.188-1.152a3.449 3.449 0 011.704-.42c.632 0 1.196.14 1.692.42.504.272.896.656 1.176 1.152.288.488.432 1.044.432 1.668 0 .624-.144 1.184-.432 1.68-.28.488-.672.872-1.176 1.152-.496.28-1.06.42-1.692.42zm0-1.008a2.15 2.15 0 001.092-.276 2.03 2.03 0 00.768-.792c.184-.344.276-.736.276-1.176 0-.44-.092-.828-.276-1.164a1.93 1.93 0 00-.768-.792 2.15 2.15 0 00-1.092-.276c-.408 0-.776.092-1.104.276-.32.184-.576.448-.768.792a2.385 2.385 0 00-.276 1.164c0 .44.092.832.276 1.176.192.336.448.6.768.792.328.184.696.276 1.104.276zm10.243-4.416h-3.528V75h-1.152v-6.36h4.68v1.008zm4.222 5.424c-.632 0-1.2-.14-1.704-.42-.504-.28-.9-.664-1.188-1.152a3.357 3.357 0 01-.42-1.68c0-.624.14-1.18.42-1.668.288-.496.684-.88 1.188-1.152a3.449 3.449 0 011.704-.42c.632 0 1.196.14 1.692.42.504.272.896.656 1.176 1.152.288.488.432 1.044.432 1.668 0 .624-.144 1.184-.432 1.68-.28.488-.672.872-1.176 1.152-.496.28-1.06.42-1.692.42zm0-1.008a2.15 2.15 0 001.092-.276 2.03 2.03 0 00.768-.792c.184-.344.276-.736.276-1.176 0-.44-.092-.828-.276-1.164a1.93 1.93 0 00-.768-.792 2.15 2.15 0 00-1.092-.276c-.408 0-.776.092-1.104.276-.32.184-.576.448-.768.792a2.385 2.385 0 00-.276 1.164c0 .44.092.832.276 1.176.192.336.448.6.768.792.328.184.696.276 1.104.276zm15.278-5.424V75h-1.152v-5.352h-3.588V75h-1.152v-6.36h5.892zm8.578 3.216c0 .088-.008.204-.024.348h-5.16c.072.56.316 1.012.732 1.356.424.336.948.504 1.572.504.76 0 1.372-.256 1.836-.768l.636.744a2.777 2.777 0 01-1.08.768c-.424.176-.9.264-1.428.264-.672 0-1.268-.136-1.788-.408a3.033 3.033 0 01-1.212-1.164 3.357 3.357 0 01-.42-1.68c0-.616.136-1.172.408-1.668.28-.496.66-.88 1.14-1.152a3.244 3.244 0 011.644-.42c.608 0 1.148.14 1.62.42.48.272.852.656 1.116 1.152.272.496.408 1.064.408 1.704zm-3.144-2.304c-.552 0-1.016.168-1.392.504-.368.336-.584.776-.648 1.32h4.08c-.064-.536-.284-.972-.66-1.308-.368-.344-.828-.516-1.38-.516zm8.303 5.52c-.648 0-1.228-.14-1.74-.42-.504-.28-.9-.664-1.188-1.152a3.284 3.284 0 01-.432-1.68c0-.624.144-1.18.432-1.668.288-.496.684-.88 1.188-1.152.512-.28 1.092-.42 1.74-.42.576 0 1.088.116 1.536.348a2.47 2.47 0 011.056 1.008l-.876.564a1.957 1.957 0 00-.744-.684 2.122 2.122 0 00-.984-.228 2.31 2.31 0 00-1.128.276 2.008 2.008 0 00-.78.792 2.385 2.385 0 00-.276 1.164c0 .448.092.844.276 1.188.192.336.452.596.78.78a2.31 2.31 0 001.128.276c.36 0 .688-.076.984-.228.296-.152.544-.38.744-.684l.876.552c-.248.44-.6.78-1.056 1.02-.448.232-.96.348-1.536.348zm7.155-2.76h-1.32V75h-1.152v-6.36h1.152v2.688h1.344l2.064-2.688h1.236l-2.412 3.06 2.58 3.3h-1.356l-2.136-2.688zm7.451-3.732c.88 0 1.552.216 2.016.648.472.432.708 1.076.708 1.932V75h-1.092v-.84a1.853 1.853 0 01-.828.684c-.352.152-.772.228-1.26.228-.712 0-1.284-.172-1.716-.516-.424-.344-.636-.796-.636-1.356s.204-1.008.612-1.344c.408-.344 1.056-.516 1.944-.516h1.824v-.228c0-.496-.144-.876-.432-1.14-.288-.264-.712-.396-1.272-.396-.376 0-.744.064-1.104.192a2.76 2.76 0 00-.912.492l-.48-.864c.328-.264.72-.464 1.176-.6.456-.144.94-.216 1.452-.216zm-.264 5.604c.44 0 .82-.096 1.14-.288.32-.2.552-.48.696-.84v-.888h-1.776c-.976 0-1.464.328-1.464.984 0 .32.124.572.372.756.248.184.592.276 1.032.276z" fill="#000"/><path d="M0 59h200" stroke="#000"/><path d="M76.15 13.2V23h-2.254v-7.952h-4.424V23h-2.254v-9.8h8.932zm11.417 7.98V23H79.98v-9.8h7.406v1.82h-5.152v2.128h4.55v1.764h-4.55v2.268h5.334zm7.839 1.988c-.999 0-1.904-.215-2.716-.644a4.99 4.99 0 01-1.904-1.806c-.457-.775-.686-1.647-.686-2.618 0-.97.229-1.839.686-2.604a4.855 4.855 0 011.904-1.806c.812-.439 1.722-.658 2.73-.658.85 0 1.615.15 2.296.448a4.6 4.6 0 011.736 1.288l-1.456 1.344c-.663-.765-1.484-1.148-2.464-1.148-.607 0-1.148.135-1.624.406a2.83 2.83 0 00-1.12 1.106c-.261.476-.392 1.017-.392 1.624 0 .607.13 1.148.392 1.624.27.476.644.85 1.12 1.12.476.261 1.017.392 1.624.392.98 0 1.801-.387 2.464-1.162l1.456 1.344a4.54 4.54 0 01-1.736 1.302c-.69.299-1.46.448-2.31.448zm14.906-9.968V23h-2.24v-3.528c-.85.308-1.638.462-2.366.462-1.316 0-2.324-.313-3.024-.938-.7-.635-1.05-1.545-1.05-2.73V13.2h2.24v2.814c0 .672.177 1.18.532 1.526.364.336.886.504 1.568.504.746 0 1.446-.145 2.1-.434V13.2h2.24zm10.472 7.7h-4.55l-.868 2.1h-2.324l4.368-9.8h2.24l4.382 9.8h-2.38l-.868-2.1zm-.714-1.722l-1.554-3.752-1.554 3.752h3.108zm15.65-5.978V23h-2.268v-4.018H129V23h-2.268v-9.8H129v3.864h4.452V13.2h2.268zm8.531 9.968c-1.017 0-1.937-.22-2.758-.658a4.966 4.966 0 01-1.918-1.806c-.457-.775-.686-1.643-.686-2.604 0-.961.229-1.825.686-2.59a4.933 4.933 0 011.918-1.82c.821-.439 1.741-.658 2.758-.658s1.932.22 2.744.658a4.933 4.933 0 011.918 1.82c.467.765.7 1.629.7 2.59 0 .961-.233 1.83-.7 2.604a4.966 4.966 0 01-1.918 1.806c-.812.439-1.727.658-2.744.658zm0-1.932c.579 0 1.101-.13 1.568-.392a2.86 2.86 0 001.092-1.12c.271-.476.406-1.017.406-1.624 0-.607-.135-1.148-.406-1.624a2.763 2.763 0 00-1.092-1.106 3.067 3.067 0 00-1.568-.406c-.579 0-1.101.135-1.568.406a2.86 2.86 0 00-1.106 1.106c-.261.476-.392 1.017-.392 1.624 0 .607.131 1.148.392 1.624.271.476.639.85 1.106 1.12.467.261.989.392 1.568.392zM74.12 29.048h-4.662L69.472 37h-2.254v-9.8h6.916l-.014 1.848zm7.039-1.848c.868 0 1.62.145 2.254.434.644.29 1.139.7 1.484 1.232s.518 1.162.518 1.89c0 .719-.173 1.349-.518 1.89-.346.532-.84.943-1.484 1.232-.635.28-1.386.42-2.254.42h-1.974V37h-2.268v-9.8h4.242zm-.126 5.25c.681 0 1.2-.145 1.554-.434.355-.299.532-.719.532-1.26 0-.55-.177-.97-.532-1.26-.355-.299-.873-.448-1.554-.448h-1.848v3.402h1.848zm13.422 2.45h-4.55l-.868 2.1h-2.324l4.368-9.8h2.24l4.382 9.8h-2.38l-.868-2.1zm-.714-1.722l-1.554-3.752-1.554 3.752h3.108zm13.451-1.288c.598.177 1.055.467 1.372.868.318.401.476.896.476 1.484 0 .868-.331 1.545-.994 2.03-.653.485-1.591.728-2.814.728h-4.83v-9.8h4.564c1.139 0 2.026.22 2.66.658.635.439.952 1.064.952 1.876 0 .485-.121.915-.364 1.288a2.527 2.527 0 01-1.022.868zm-4.536-.63h2.114c.495 0 .868-.098 1.12-.294.252-.205.378-.504.378-.896 0-.383-.13-.677-.392-.882-.252-.205-.62-.308-1.106-.308h-2.114v2.38zm2.492 4.06c1.064 0 1.596-.42 1.596-1.26 0-.812-.532-1.218-1.596-1.218h-2.492v2.478h2.492zm7.086-8.12h2.254v6.384l4.676-6.384h2.128V37h-2.24v-6.37L114.376 37h-2.142v-9.8zm12.898 0h2.254v6.384l4.676-6.384h2.128V37h-2.24v-6.37L127.274 37h-2.142v-9.8zm4.522-.63c-1.792 0-2.697-.714-2.716-2.142h1.554c.019.681.406 1.022 1.162 1.022.373 0 .658-.084.854-.252.196-.177.299-.434.308-.77h1.554c-.009.7-.238 1.232-.686 1.596-.448.364-1.125.546-2.03.546zm17.364.63V37h-2.268v-4.018h-4.452V37h-2.268v-9.8h2.268v3.864h4.452V27.2h2.268zm8.601 3.22c1.195 0 2.11.266 2.744.798.644.532.966 1.32.966 2.366 0 1.11-.354 1.96-1.064 2.548-.7.579-1.689.868-2.968.868h-4.424v-9.8h2.254v3.22h2.492zm-.448 4.9c.588 0 1.046-.145 1.372-.434.336-.29.504-.71.504-1.26 0-1.017-.625-1.526-1.876-1.526h-2.044v3.22h2.044zm5.404-8.12h2.254V37h-2.254v-9.8zm6.095 0h2.254v6.384L173.6 27.2h2.128V37h-2.24v-6.37L168.812 37h-2.142v-9.8zm4.522-.63c-1.792 0-2.697-.714-2.716-2.142h1.554c.019.681.406 1.022 1.162 1.022.373 0 .658-.084.854-.252.196-.177.299-.434.308-.77h1.554c-.009.7-.238 1.232-.686 1.596-.448.364-1.125.546-2.03.546zM71.012 47.052h-1.568V51H67.19v-9.8h2.254v3.962h1.624l2.576-3.962h2.394l-3.206 4.732L76.136 51H73.56l-2.548-3.948zM85.043 48.9h-4.55l-.868 2.1h-2.324l4.368-9.8h2.24l4.382 9.8h-2.38l-.868-2.1zm-.714-1.722l-1.554-3.752-1.554 3.752h3.108zM95.233 41.2c.868 0 1.619.145 2.254.434.644.29 1.138.7 1.484 1.232.345.532.518 1.162.518 1.89 0 .719-.173 1.349-.518 1.89-.346.532-.84.943-1.484 1.232-.635.28-1.386.42-2.254.42h-1.974V51H90.99v-9.8h4.242zm-.126 5.25c.681 0 1.199-.145 1.554-.434.354-.299.532-.719.532-1.26 0-.55-.178-.97-.532-1.26-.355-.299-.873-.448-1.554-.448h-1.848v3.402h1.848zm12.024-2.03c1.194 0 2.109.266 2.744.798.644.532.966 1.32.966 2.366 0 1.11-.355 1.96-1.064 2.548-.7.579-1.69.868-2.968.868h-4.424v-9.8h2.254v3.22h2.492zm-.448 4.9c.588 0 1.045-.145 1.372-.434.336-.29.504-.71.504-1.26 0-1.017-.626-1.526-1.876-1.526h-2.044v3.22h2.044zm14.78-.14V51h-7.588v-9.8h7.406v1.82h-5.152v2.128h4.55v1.764h-4.55v2.268h5.334zm7.474-7.98c.868 0 1.619.145 2.254.434.644.29 1.138.7 1.484 1.232.345.532.518 1.162.518 1.89 0 .719-.173 1.349-.518 1.89-.346.532-.84.943-1.484 1.232-.635.28-1.386.42-2.254.42h-1.974V51h-2.268v-9.8h4.242zm-.126 5.25c.681 0 1.199-.145 1.554-.434.354-.299.532-.719.532-1.26 0-.55-.178-.97-.532-1.26-.355-.299-.873-.448-1.554-.448h-1.848v3.402h1.848zM36 8v13L49 8l11 .5L39 30l21 21H48L36 39v12h-9V8h9z" fill="#000"/><path d="M9 9l51-.5V0H0v51h9V9z" fill="#000"/></svg>