<svg display="none" xmlns="http://www.w3.org/2000/svg">
  <symbol id="phone" viewBox="0 0 514 514">
      <path d="M499.66 376.96L427.98 305.28C402.38 279.68 358.86 289.921 348.62 323.2C340.94 346.241 315.34 359.041 292.3 353.92C241.1 341.12 171.98 274.56 159.18 220.8C151.5 197.759 166.86 172.159 189.9 164.48C223.18 154.24 233.42 110.72 207.82 85.12L136.14 13.44C115.66 -4.48 84.94 -4.48 67.02 13.44L18.38 62.08C-30.26 113.28 23.5 248.96 143.82 369.28C264.14 489.6 399.82 545.921 451.02 494.72L499.66 446.08C517.581 425.6 517.581 394.88 499.66 376.96Z"/>
  </symbol>

  <symbol id="email" viewBox="0 0 24 24">
      <path d="M23.9823 5.17009C23.9823 5.14267 24.0011 5.11598 23.9999 5.08887L16.6759 12.1459L23.9911 18.9775C23.9954 18.9287 23.9823 18.8795 23.9823 18.8297V5.17009Z"/>
      <path d="M15.5579 13.2319L12.568 16.1086C12.4167 16.2541 12.2213 16.3271 12.0258 16.3271C11.8343 16.3271 11.6429 16.2572 11.4927 16.1172L8.51093 13.3387L1.14795 20.4358C1.32698 20.5001 1.51915 20.5501 1.7204 20.5501H22.3313C22.6301 20.5501 22.9104 20.459 23.1541 20.3233L15.5579 13.2319Z"/>
      <path d="M12.0173 14.4682L23.1947 3.7011C22.9416 3.55064 22.6471 3.44971 22.3313 3.44971H1.72045C1.30931 3.44971 0.932578 3.60935 0.63916 3.85282L12.0173 14.4682Z"/>
      <path d="M0 5.43262V18.8297C0 18.9835 0.0353478 19.1318 0.0737194 19.2735L7.34535 12.2711L0 5.43262Z"/>
  </symbol>

  <symbol id="location" viewBox="0 0 512 512">
      <path d="M256 0C150.144 0 64 86.7413 64 193.387C64 344.917 237.952 501.376 245.355 507.947C248.405 510.656 252.203 512 256 512C259.797 512 263.595 510.656 266.645 507.968C274.048 501.376 448 344.917 448 193.387C448 86.7413 361.856 0 256 0ZM256 298.667C197.184 298.667 149.333 250.816 149.333 192C149.333 133.184 197.184 85.3333 256 85.3333C314.816 85.3333 362.667 133.184 362.667 192C362.667 250.816 314.816 298.667 256 298.667Z"/>
  </symbol>
</svg>